:SAMPLES-PER-SECOND 30
:FRAME-RANGE 1-744
:FULLY-SPECIFIED
:DEGREES
303
root  -5.20358 39.2563 47.1548 7.29878 6.73781 -2.4846
RightUpLeg  -18.2151 -4.19816 0.871116
RightLeg  15.7318 -7.08003 -0.102926
RightFoot  -4.22466 -0.139038 1.77308
RightToes  -5.28216e-011 1.2921e-014 -6.02303e-014
Spine  -4.02955 -1.49181 6.68898
Spine1  8.01699 -1.99821 1.91735
HEad  20.157 17.7177 2.70145
LeftShoulder1  1.14824 -1.29986 -18.6217
LeftArm  -3.16004 1.69459 -55.1965
LeftForeArm  26.9166 -0.748253 -12.2099
LeftHand  -0.0169796 5.73277 3.49916
RightShoulder  1.51377 0.84778 30.5162
RightArm  -30.4116 -3.08282 44.1539
RightForeArm  51.7028 -5.4983 0.968394
RightHand  0.365624 -7.95259 -17.319
LeftUpLeg  -8.44805 12.1937 14.8196
LeftLeg  38.4674 10.4746 9.16472
LeftFoot  -3.70794 0.430727 -6.12024
LeftToes  -9.4837e-011 -7.11147e-011 -1.07582e-011
304
root  -5.63784 39.2665 48.1833 6.99376 4.40895 -2.36984
RightUpLeg  -16.7363 -3.71609 1.69202
RightLeg  16.4374 -5.39769 0.0829185
RightFoot  -5.9245 -0.086749 0.982935
RightToes  -5.28216e-011 1.2921e-014 -6.02303e-014
Spine  -3.76295 -1.13094 7.76427
Spine1  8.05878 -1.43903 1.19356
HEad  20.5871 20.2167 2.31573
LeftShoulder1  1.0468 -0.888278 -18.6498
LeftArm  -2.46212 2.6937 -55.3829
LeftForeArm  26.8281 -1.63634 -12.3905
LeftHand  -0.0092652 6.00493 3.63033
RightShoulder  1.62653 1.23326 29.9079
RightArm  -30.202 -3.29832 45.2081
RightForeArm  53.5305 -5.47491 1.14331
RightHand  0.357467 -7.92621 -17.1398
LeftUpLeg  -11.3401 9.82091 12.0045
LeftLeg  40.1137 9.00956 8.41566
LeftFoot  -6.14184 0.346268 -6.81096
LeftToes  -9.4837e-011 -7.11147e-011 -1.07582e-011
305
root  -6.01738 39.2818 49.2034 6.68855 2.49388 -2.03226
RightUpLeg  -15.0267 -3.79805 2.07458
RightLeg  16.8603 -3.6059 0.461399
RightFoot  -7.55313 -0.0543654 0.0950944
RightToes  -5.28216e-011 1.2921e-014 -6.02303e-014
Spine  -3.4931 -0.750869 8.53744
Spine1  7.98461 -0.901045 0.473531
HEad  20.8292 22.5909 1.58105
LeftShoulder1  0.972821 -0.528753 -19.091
LeftArm  -2.48147 3.43132 -55.4627
LeftForeArm  27.7553 -1.99213 -12.3556
LeftHand  -0.0129313 5.92817 3.34714
RightShoulder  1.6797 1.45557 29.3456
RightArm  -29.8205 -3.07263 46.0048
RightForeArm  55.103 -5.46883 1.38692
RightHand  0.366746 -8.05446 -16.7575
LeftUpLeg  -14.3967 6.17934 8.95554
LeftLeg  40.6203 9.58109 9.06521
LeftFoot  -7.87087 0.255187 -6.86241
LeftToes  -9.4837e-011 -7.11147e-011 -1.07582e-011
306
root  -6.38345 39.2951 50.2435 6.27509 0.885208 -1.6017
RightUpLeg  -12.9271 -3.79896 2.29085
RightLeg  16.8719 -2.39275 0.640305
RightFoot  -9.05787 -0.0444708 -0.846458
RightToes  -5.28216e-011 1.2921e-014 -6.02303e-014
Spine  -3.30828 -0.369208 8.92153
Spine1  7.95191 -0.423177 -0.087137
HEad  21.0624 24.762 1.0189
LeftShoulder1  0.89712 -0.182716 -19.4623
LeftArm  -2.15164 3.95771 -55.6522
LeftForeArm  28.1878 -1.76411 -12.4896
LeftHand  -0.014536 5.71949 3.20546
RightShoulder  1.73306 1.64699 29.0585
RightArm  -29.1701 -2.33733 46.3208
RightForeArm  56.6174 -5.48074 1.73567
RightHand  0.37853 -8.14029 -16.7383
LeftUpLeg  -17.2951 1.86691 6.1869
LeftLeg  39.881 11.5066 10.4882
LeftFoot  -8.72771 0.183394 -5.74449
LeftToes  -9.4837e-011 -7.11147e-011 -1.07582e-011
307
root  -6.74353 39.2793 51.2961 5.90137 -0.975952 -1.19943
RightUpLeg  -10.9054 -3.89589 2.41027
RightLeg  16.9741 -0.642885 0.895334
RightFoot  -10.5706 -0.0589761 -1.8629
RightToes  -5.28216e-011 1.2921e-014 -6.02303e-014
Spine  -3.16651 0.204282 9.22304
Spine1  7.82602 0.243079 -0.717755
HEad  21.2397 27.1502 0.535725
LeftShoulder1  0.80775 0.183202 -19.6236
LeftArm  -2.2932 4.8146 -56.1216
LeftForeArm  29.3527 -1.53253 -12.5172
LeftHand  -0.0217384 5.90655 3.131
RightShoulder  1.81156 1.91114 28.7926
RightArm  -28.7621 -1.37938 46.5981
RightForeArm  58.4674 -5.4499 1.90556
RightHand  0.375976 -8.13493 -16.6683
LeftUpLeg  -19.9359 -1.60723 3.97493
LeftLeg  37.7741 13.4586 11.2979
LeftFoot  -9.22233 0.128718 -3.9695
LeftToes  -9.4837e-011 -7.11147e-011 -1.07582e-011
308
root  -7.09284 39.2718 52.3861 5.46114 -2.83817 -0.553284
RightUpLeg  -8.64071 -4.29349 2.0615
RightLeg  16.9283 1.39373 1.32022
RightFoot  -12.0105 -0.0979543 -2.87044
RightToes  -5.28216e-011 1.2921e-014 -6.02303e-014
Spine  -3.20797 0.797725 9.22875
Spine1  7.98829 0.964083 -1.47827
HEad  21.3623 29.6771 0.38445
LeftShoulder1  0.70731 0.58613 -19.772
LeftArm  -2.61239 5.73996 -56.4138
LeftForeArm  30.8449 -1.20101 -12.4949
LeftHand  -0.0250816 5.52455 2.23332
RightShoulder  1.88516 2.1641 28.5324
RightArm  -28.0911 -0.332462 46.9689
RightForeArm  59.584 -5.4706 2.2472
RightHand  0.448332 -8.5139 -17.3036
LeftUpLeg  -21.9573 -5.11706 2.05397
LeftLeg  33.8079 14.8515 10.7961
LeftFoot  -8.77276 0.13537 -3.69103
LeftToes  -9.4837e-011 -7.11147e-011 -1.07582e-011
